<?xml version="1.0" encoding="utf-8"?>
<!-- Generator: Adobe Illustrator 26.5.0, SVG Export Plug-In . SVG Version: 6.00 Build 0)  -->
<svg version="1.1" id="Layer_1" xmlns="http://www.w3.org/2000/svg" xmlns:xlink="http://www.w3.org/1999/xlink" x="0px" y="0px"
	 viewBox="0 0 225 225" style="enable-background:new 0 0 225 225;" xml:space="preserve">
<g>
	<path d="M30.85,30.85c13.54-0.78,27.13-0.11,40.69-0.39c2.04,0.18,4.54-0.46,6.06,1.29c0.09,1.13-0.05,2.24-0.41,3.32
		c-2.19,0.49-4.44,0.48-6.66,0.5c-11.67-0.09-23.33-0.04-35-0.04c0,11.66-0.05,23.33,0.04,34.99c-0.02,2.23-0.01,4.49-0.5,6.67
		c-2.23,1.18-5,0.15-4.54-2.71C30.63,59.95,30.13,45.38,30.85,30.85z"/>
	<path d="M149.74,30.74c5.56-0.6,11.17-0.08,16.76-0.24c9.55,0.15,19.12-0.35,28.65,0.35c0.73,14.52,0.22,29.09,0.32,43.64
		c0.47,2.8-2.34,3.92-4.53,2.69c-0.51-2.18-0.49-4.43-0.51-6.65c0.09-11.67,0.04-23.34,0.04-35c-11.66,0-23.33-0.05-34.99,0.04
		c-2.23-0.02-4.48,0-6.66-0.51C148.32,33.57,147.77,31.39,149.74,30.74z"/>
	<g>
		<path d="M51.45,51.45c10.02-0.44,20.06-0.11,30.08-0.25c1.72,0.2,3.83-0.3,5.23,0.93c0.76,5.42,0.16,10.92,0.32,16.37
			c-0.18,5.77,0.44,11.58-0.27,17.31c-0.25,0.25-0.75,0.75-1,1c-5.4,0.7-10.88,0.11-16.31,0.27c-5.79-0.18-11.62,0.45-17.38-0.31
			c-1.2-1.43-0.73-3.51-0.93-5.23C51.34,71.51,51.01,61.47,51.45,51.45z M56.19,56.19c-0.05,8.68-0.13,17.37,0.05,26.06
			c8.66-0.09,17.32-0.06,25.98-0.03c-0.03-8.66-0.06-17.32,0.03-25.98C73.56,56.06,64.87,56.14,56.19,56.19z"/>
	</g>
	<path d="M98.8,51.57c1.06-0.39,3.55-0.53,3.47,1.11c0.53,6.12,0.74,12.39-0.2,18.48c-1.1,0.3-2.23,0.46-3.38,0.47
		c-1.53-2.04-1.12-4.71-1.24-7.09c0.12-4.22-0.34-8.51,0.55-12.66L98.8,51.57z"/>
	<path d="M111.75,51.54c5.12-0.55,10.38-0.63,15.48,0.06c1.89,0.94,0.66,2.99,0.52,4.55c-5.7-0.02-11.4,0.11-17.09-0.23
		C110.83,54.44,110.26,52.52,111.75,51.54z"/>
	<g>
		<path d="M139.19,52.05c2.24-1.17,4.87-0.75,7.3-0.86c9.35,0.18,18.71-0.19,28.06,0.26c0.25,11.61,0.51,23.26-0.06,34.85
			c-3.81,1.48-8.02,0.6-12,0.79c-7.43-0.25-14.91,0.46-22.31-0.28c-0.24-0.25-0.74-0.75-0.99-1c-0.68-5.07-0.13-10.21-0.27-15.31
			C139.08,64.35,138.52,58.17,139.19,52.05z M143.75,56.24c0.09,8.66,0.06,17.32,0.03,25.98c8.66-0.03,17.32-0.06,25.98,0.03
			c0.18-8.69,0.1-17.38,0.05-26.06C161.13,56.14,152.44,56.06,143.75,56.24z"/>
	</g>
	<g>
		<path d="M61.81,61.81c4.77-0.3,9.62-0.78,14.35,0.12c1.2,4.76,0.52,9.74,0.36,14.59c-4.85,0.15-9.83,0.84-14.6-0.36
			C61.03,71.43,61.51,66.58,61.81,61.81z M66.49,66.49c0,1.77,0,3.55,0,5.32c1.78,0.01,3.55,0.02,5.33,0.02c0-1.78,0-3.56,0-5.34
			C70.04,66.49,68.26,66.49,66.49,66.49z"/>
	</g>
	<g>
		<path d="M149.84,61.92c4.73-0.89,9.59-0.42,14.35-0.1c0.43,4.84,0.43,9.72,0.07,14.56c-4.92,0.55-9.87,0.46-14.79,0.16
			C149.33,71.68,148.64,66.7,149.84,61.92z M154.18,66.49c-0.01,1.78-0.01,3.55,0,5.33c1.77,0,3.55,0,5.33,0c0-1.78,0-3.56,0-5.33
			C157.73,66.49,155.96,66.49,154.18,66.49z"/>
	</g>
	<path d="M110.86,66.91c5.73-0.49,11.51-0.49,17.24,0c0.47,6.41,0.81,12.92,0.01,19.32c-1.43,0.4-2.91,0.58-4.38,0.79
		c-0.42-5.12-0.35-10.26-0.32-15.4c-2.63,0.01-5.26,0.01-7.89,0c-0.01,5.03,0.06,10.07-0.25,15.1c-1.51,0.02-3.03,0.02-4.54,0.01
		C110.39,80.13,110.27,73.5,110.86,66.91z"/>
	<path d="M98.02,82.89c1.22-0.94,2.77-0.75,4.08-0.12c0.88,6.09,0.67,12.33,0.25,18.45c-0.28,0.29-0.85,0.85-1.13,1.14
		c-8.03,0.52-16.14,0.33-24.18-0.12c0.22-1.45,0.42-2.91,0.81-4.32c6.5-0.94,13.12-0.19,19.66-0.42
		C97.69,92.64,96.93,87.67,98.02,82.89z"/>
	<path d="M51.9,98.01c4.76-1.05,9.72-0.52,14.52-0.04c-0.22,1.49,0.2,3.35-1.17,4.4c-4.46,0.47-9.04,0.55-13.47-0.28
		C51.29,100.76,51.05,99.26,51.9,98.01z"/>
	<path d="M110.58,97.96c7.59-0.73,15.26-0.67,22.85-0.04c-0.12,1.61,0.35,4.51-2.03,4.55c-6.54,0.22-13.13,0.36-19.66-0.09
		C110.38,101.31,110.8,99.46,110.58,97.96z"/>
	<path d="M144.89,97.95c6.14-1,12.41-0.2,18.6-0.46c3.54,0.06,7.15-0.32,10.63,0.52c0.77,1.26,0.65,2.77,0.1,4.09
		c-3.19,0.7-6.48,0.5-9.72,0.52c-6.82-0.12-13.66,0.23-20.47-0.4C144.27,100.79,144.49,99.35,144.89,97.95z"/>
	<path d="M30.81,110.85c2.55-0.23,5.11-0.36,7.67-0.37c46.34,0.03,92.68,0.01,139.03,0.02c5.89,0.02,11.8-0.21,17.67,0.35
		c0.01,1.43,0.01,2.86,0,4.3c-2.55,0.22-5.1,0.35-7.65,0.37c-46.35-0.03-92.69-0.01-139.03-0.02c-5.89-0.02-11.8,0.21-17.69-0.35
		C30.8,113.71,30.8,112.28,30.81,110.85z"/>
	<path d="M52.67,123.72c7.21-0.61,14.51-0.42,21.74-0.14c2.58-0.49,2.67,2.83,1.71,4.42c-4.14,0.92-8.42,0.38-12.62,0.51
		c-3.86-0.1-7.81,0.37-11.61-0.52C51.15,126.81,50.83,123.83,52.67,123.72z"/>
	<path d="M87.82,123.92c2.75-0.74,5.66-0.73,8.47-0.36c1.05,1.24,0.93,2.94,1.17,4.45c-3.29,0.18-7.23,1.52-10.07-0.74
		C87.34,126.13,87.49,125.01,87.82,123.92z"/>
	<path d="M164.75,123.68c3.11-0.6,6.38-0.49,9.47,0.23c0.53,1.31,0.69,2.82-0.11,4.08c-3.3,0.85-6.87,0.83-10.15-0.05
		C163.31,126.5,162.77,124.31,164.75,123.68z"/>
	<g>
		<path d="M128.85,128.85c8.36-0.53,16.77-0.59,25.12,0.04c0.18,7.74,0.41,15.5,0.03,23.23c-0.03,1.82-2.19,2.02-3.56,2.01
			c-7.18,0.09-14.37,0.09-21.55-0.16C128.27,145.62,128.31,137.2,128.85,128.85z M133.53,133.53c-0.01,5.24-0.02,10.49,0.03,15.74
			c5.23-0.05,10.46-0.04,15.69-0.02c-0.02-5.23-0.03-10.46,0.02-15.69C144.02,133.51,138.77,133.52,133.53,133.53z"/>
	</g>
	<g>
		<path d="M52.1,139.22c4.77-0.68,9.6-0.19,14.4-0.3c6.19,0.14,12.4-0.3,18.58,0.14c2.25,0.11,1.94,2.85,2.03,4.43
			c-0.04,9-0.01,17.99-0.01,26.99c-0.04,1.75-0.05,4.76-2.63,4.2c-11,0.14-22.02,0.24-33.02-0.14c-0.44-9.68-0.09-19.38-0.26-29.06
			C51.36,143.41,50.86,141.02,52.1,139.22z M56.24,143.75c-0.18,8.69-0.1,17.38-0.05,26.06c8.68,0.05,17.37,0.13,26.06-0.05
			c-0.09-8.66-0.06-17.32-0.03-25.98C73.56,143.81,64.9,143.84,56.24,143.75z"/>
	</g>
	<path d="M98.28,138.88c6.74,0.1,13.49-0.01,20.23,0c1.48,0.18,3.46-0.29,4.37,1.24c0.75,1.27,0.34,3.5-1.48,3.46
		c-6.24,0.6-12.52,0.09-18.77,0.18c-0.23,9.55,0.28,19.11-0.22,28.65c0.47,2.58-2.81,2.67-4.41,1.71
		c-1.03-5.14-0.32-10.42-0.49-15.62C97.71,151.96,96.86,145.32,98.28,138.88z"/>
	<path d="M165.21,138.85c2.9,0.04,5.83-0.11,8.71,0.36c1.28,2.17,0.72,4.87,0.9,7.28c-0.19,4.18,0.53,8.51-0.79,12.56
		c-1.39,0.05-2.77-0.1-4.15-0.23c-0.03-4.89,0.03-9.79-0.16-14.68c-1.62-0.35-3.25-0.66-4.82-1.18
		C164.87,141.58,165.05,140.22,165.21,138.85z"/>
	<path d="M31.76,148.42c1.13-0.14,2.23,0,3.3,0.4c0.51,2.18,0.49,4.43,0.51,6.65c-0.09,11.67-0.04,23.34-0.04,35
		c11.66,0,23.33,0.05,34.99-0.04c2.23,0.02,4.48,0,6.67,0.51c1.2,2.2,0.12,4.99-2.7,4.53c-14.54-0.1-29.11,0.41-43.64-0.32
		c-0.78-13.54-0.11-27.12-0.39-40.68C30.65,152.43,29.97,149.9,31.76,148.42z"/>
	<path d="M190.93,148.81c2.21-1.21,5.01-0.13,4.54,2.7c-0.11,14.54,0.42,29.11-0.33,43.63c-13.54,0.8-27.12,0.11-40.68,0.4
		c-2.04-0.19-4.55,0.47-6.05-1.3c-0.11-1.13,0.03-2.23,0.4-3.31c2.18-0.5,4.44-0.48,6.66-0.5c11.67,0.09,23.34,0.04,35,0.04
		c0-11.66,0.05-23.33-0.04-34.99C190.45,153.25,190.43,150.99,190.93,148.81z"/>
	<g>
		<path d="M61.92,149.84c4.78-1.2,9.76-0.51,14.62-0.37c0.13,4.85,0.81,9.83-0.38,14.61c-4.72,0.89-9.58,0.42-14.34,0.1
			C61.5,159.42,61.03,154.56,61.92,149.84z M66.49,154.18c0,1.78,0,3.55,0,5.33c1.77,0,3.55,0,5.33,0c0-1.78,0-3.56,0-5.33
			C70.04,154.17,68.27,154.17,66.49,154.18z"/>
	</g>
	<path d="M110.6,155.6c-0.16-2.56,3.88-3.17,4.67-0.85c0.6,4.99,0.11,10.04,0.22,15.06c7.71,0.02,15.42,0.22,23.13-0.15
		c0.43-1.83,0.7-3.78,1.89-5.31c1.4,0.25,3.14,0.47,3.11,2.3c0.39,2.62,0.11,5.28,0,7.92c-7.7,0.36-15.41,0.11-23.12,0.23
		c-3.2-0.04-6.47,0.22-9.58-0.63C110.09,168.03,110.45,161.77,110.6,155.6z"/>
	<path d="M154.59,165.75c1.15-0.99,2.78-0.9,4.18-1.22c0.31,1.75,0.61,3.5,0.89,5.27c4.86,0.06,9.72,0.03,14.57,0.17
		c0.13,1.5,0.25,2.99,0.4,4.49c-6.58,0.24-13.28,0.93-19.79-0.27C154.15,171.44,154.11,168.54,154.59,165.75z"/>
</g>
</svg>
